<?xml version="1.0" standalone="no"?>
<!DOCTYPE svg PUBLIC "-//W3C//DTD SVG 1.1//EN" "http://www.w3.org/Graphics/SVG/1.1/DTD/svg11.dtd" >
<svg xmlns="http://www.w3.org/2000/svg">
<metadata></metadata>
<defs>
<font id="aviatorregular" horiz-adv-x="1522" >
<font-face units-per-em="2048" ascent="1638" descent="-410" />
<missing-glyph horiz-adv-x="577" />
<glyph horiz-adv-x="0" />
<glyph unicode="&#xd;" horiz-adv-x="682" />
<glyph unicode=" "  horiz-adv-x="577" />
<glyph unicode="&#x09;" horiz-adv-x="577" />
<glyph unicode="&#xa0;" horiz-adv-x="577" />
<glyph unicode="!" horiz-adv-x="330" d="M80 936l31 -731h118l31 731h-180zM90 76q0 -33 25 -56q22 -22 55 -24q76 4 80 80q0 35 -23 57q-22 23 -57 23q-33 0 -55 -23q-25 -22 -25 -57z" />
<glyph unicode="&#x22;" horiz-adv-x="541" d="M90 811q0 -33 27 -68q20 -36 28 -116h47q11 65 31 104q23 39 25 80v43q0 35 -21 57q-22 23 -57 23q-33 0 -55 -23q-25 -22 -25 -57v-43zM315 811q0 -33 27 -68q20 -36 29 -116h47q10 65 30 104q23 39 25 80v43q0 35 -20 57q-23 23 -58 23q-33 0 -55 -23q-25 -22 -25 -57 v-43z" />
<glyph unicode="#" horiz-adv-x="799" d="M61 264h111l-16 -108h157l17 108h88l-17 -108h158l16 108h109l23 158h-109l12 88h109l22 158h-108l14 110h-158l-16 -110h-86l14 110h-157l-17 -110h-108l-23 -158h111l-12 -88h-111zM352 422l13 88h88l-13 -88h-88z" />
<glyph unicode="$" horiz-adv-x="727" d="M90 289q0 -105 64 -168q61 -66 151 -70v-53h158v53q86 6 143 68q58 59 60 170q0 37 -2 84q-7 45 -27 86q-21 41 -66 69q-45 27 -127 27h-98q-51 0 -76 29q-26 26 -26 57q0 35 28 59q25 23 74 25h64q38 0 59 -8q20 -8 29 -27q12 -37 10 -94h158q0 -4 0 29q-2 104 -58 178 q-57 73 -145 82v51h-158v-51q-78 -2 -121 -31q-45 -29 -65 -72q-21 -41 -25 -80q-4 -36 -4 -57q0 -90 53 -166q27 -35 70 -57q41 -23 98 -23h99q53 0 79 -26q27 -29 27 -68q2 -39 -22 -67q-29 -31 -84 -31h-64q-70 0 -86 29q-14 28 -12 73h-158q0 4 0 -20z" />
<glyph unicode="%" horiz-adv-x="965" d="M96 731q0 -86 45 -143q43 -60 127 -62q86 2 129 62q43 57 43 143q0 66 -26 115q53 -2 102 12l-188 -858h159l207 936h-160q-49 -60 -131 -72q-43 70 -135 72q-84 -2 -127 -60q-45 -57 -45 -145zM227 731q0 29 9 47q6 19 32 19q27 0 35 -19q6 -18 6 -47t-6 -47 q-8 -20 -35 -20q-26 0 -32 20q-9 18 -9 47zM580 199q0 -86 43 -144q43 -59 127 -61q86 2 129 61q43 58 43 144q0 88 -43 145t-129 59q-84 -2 -127 -59t-43 -145zM709 199q0 28 8 49q6 18 33 18q26 0 34 -18q6 -21 6 -49q0 -29 -6 -47q-8 -21 -34 -21q-27 0 -33 21 q-8 18 -8 47z" />
<glyph unicode="&#x26;" horiz-adv-x="727" d="M70 254q10 -107 79 -178q70 -76 162 -76h183l47 -98h186l-100 213q39 63 39 143v70h-140l-39 86q93 18 138 86q41 65 41 141v76q-2 108 -66 164q-63 55 -156 55h-53q-104 -2 -164 -96q-12 -21 -22 -45q-8 -25 -13 -50q-10 -53 9 -106q2 0 2 -8q2 -11 33 -78 q-58 -19 -91 -57q-34 -37 -53 -84q-14 -45 -18 -86q-4 -43 -4 -72zM238 270q0 45 22 86q21 39 45 49l117 -249q-70 -9 -125 12q-53 18 -59 102zM362 692q-24 80 66 84q53 0 68 -22q12 -25 12 -78q0 -39 -10 -72q-15 -33 -82 -39q-11 23 -27 58q-16 34 -27 69z" />
<glyph unicode="'" horiz-adv-x="330" d="M90 811q0 -33 27 -68q20 -36 28 -116h47q11 65 31 104q23 39 25 80v43q0 35 -21 57q-22 23 -57 23q-33 0 -55 -23q-25 -22 -25 -57v-43z" />
<glyph unicode="(" horiz-adv-x="440" d="M90 55q0 -90 53 -172q27 -39 70 -61q41 -25 98 -27h99v156h-64q-65 2 -82 53q-18 49 -16 109v710q0 74 22 117q21 41 76 41h64v162h-99q-92 -2 -153 -76q-66 -76 -68 -186v-826z" />
<glyph unicode=")" horiz-adv-x="420" d="M43 -49v-156h98q62 2 105 27q41 22 67 61q49 82 49 172v826q-2 110 -63 186q-63 74 -158 76h-98v-162h63q56 0 78 -41q21 -43 21 -117v-710q0 -60 -15 -109q-18 -51 -84 -53h-63z" />
<glyph unicode="*" horiz-adv-x="743" d="M57 459q-8 -33 6 -62q21 -26 52 -37q28 -8 57 7q29 16 37 22q27 19 53 64q27 43 72 81q8 7 18 3q8 -7 6 -17q-10 -57 -34 -104q-9 -23 -19 -41q-10 -19 -10 -35v-43q0 -33 24 -55q23 -25 56 -25q76 2 78 80v43q-2 35 -25 82q-25 47 -39 98q0 10 10 17q9 4 15 -3 q47 -38 75 -81q15 -21 27 -37q12 -19 23 -27q10 -6 36 -20q33 -15 64 -7q29 7 45 35q31 66 -31 107q-24 16 -37 22q-30 17 -82 21q-53 6 -106 16q-10 4 -2 25q61 18 115 22q51 2 75 15q13 6 39 20q29 21 39 51q8 31 -10 60q-16 28 -45 37q-31 8 -64 -11q-26 -16 -36 -22 q-27 -19 -58 -62q-30 -45 -69 -84q-17 -4 -23 13q12 53 37 102q25 47 27 82v43q0 35 -21 57q-22 23 -57 23q-33 0 -56 -23q-24 -22 -24 -57v-43q2 -27 29 -74q24 -49 36 -110q-4 -17 -24 -13q-39 39 -68 84q-28 45 -59 64q-10 6 -37 20q-29 19 -59 11q-33 -9 -50 -37 q-30 -66 31 -109q25 -14 37 -22q27 -11 80 -15q51 -4 111 -20q8 -15 -3 -29q-24 -6 -49 -8q-28 -6 -53 -8q-53 -4 -86 -21q-12 -6 -37 -20q-26 -17 -37 -45z" />
<glyph unicode="+" horiz-adv-x="666" d="M90 428h178v-170h158v170h162v158h-162v172h-158v-172h-178v-158z" />
<glyph unicode="," horiz-adv-x="330" d="M90 76q0 -33 25 -56q22 -22 55 -24h2q0 -68 -82 -119h33q26 10 74 60q22 24 36 49q15 24 15 47v43q0 35 -21 57q-22 23 -57 23q-33 0 -55 -23q-25 -22 -25 -57z" />
<glyph unicode="-" horiz-adv-x="596" d="M90 428h418v158h-418v-158z" />
<glyph unicode="." horiz-adv-x="330" d="M90 76q0 -33 25 -56q22 -22 55 -24q76 4 80 80q0 35 -23 57q-22 23 -57 23q-33 0 -55 -23q-25 -22 -25 -57z" />
<glyph unicode="/" horiz-adv-x="473" d="M18 -205h160l287 1346h-160z" />
<glyph unicode="0" horiz-adv-x="723" d="M90 385q2 -172 84 -283q80 -112 199 -114q121 2 204 114q82 111 84 283v168q-2 174 -84 285q-83 108 -204 110q-119 -2 -199 -110q-82 -111 -84 -285v-168zM248 444v84q0 111 37 176q34 66 92 68q53 0 86 -65zM272 244q-4 -11 21 20q22 29 215 260v-123q0 -108 -35 -176 q-37 -71 -96 -71q-68 0 -105 90z" />
<glyph unicode="1" horiz-adv-x="399" d="M90 776h82v-776h160v938h-152l-90 -72v-90z" />
<glyph unicode="2" horiz-adv-x="727" d="M88 0h576v158h-416v61q-2 43 12 96q16 54 86 56h98q119 2 172 67q50 64 50 152q0 -21 0 129q-2 108 -66 164q-63 53 -156 53h-135q-90 -2 -151 -74q-66 -74 -68 -184v-70h158q-2 60 12 115q16 53 86 55h64q55 0 77 -20q21 -25 21 -97q0 -61 0 -34q0 -58 -14 -78 q-19 -23 -84 -23h-99q-116 -2 -168 -75q-53 -72 -53 -162q0 14 0 -125v-111q-2 -51 -2 -53z" />
<glyph unicode="3" horiz-adv-x="727" d="M90 238q2 -107 68 -170q61 -68 151 -68h135q93 0 156 57q64 56 66 160q0 135 0 111q0 45 -9 92q-12 47 -39 76q27 28 39 73q9 41 9 82q0 -37 0 66q-2 108 -66 164q-63 55 -156 55h-135q-90 -2 -151 -66q-66 -65 -68 -174v-69h158q-2 59 12 104q16 43 86 45h64 q55 0 77 -22q21 -25 21 -74q2 -37 -12 -64q-15 -30 -86 -30h-84v-158h84q65 0 84 -35q14 -35 14 -94q0 29 0 -29q0 -69 -21 -92q-22 -22 -77 -22h-64q-70 2 -86 49q-14 45 -12 102h-158v-69z" />
<glyph unicode="4" horiz-adv-x="737" d="M90 223h416v-223h160v936h-170l-406 -555v-158zM274 381l232 315v-315h-232z" />
<glyph unicode="5" horiz-adv-x="727" d="M90 240q0 -91 51 -162q27 -33 70 -55q41 -23 98 -23h135q62 0 105 27q41 22 67 61q50 82 50 172v150q-2 110 -66 186q-63 74 -156 76h-61q-47 0 -86 -19q-41 -18 -49 -59v182h418v160h-576v-551h158q-2 47 18 86q21 37 80 39h64q55 0 79 -41q21 -43 21 -117v-33 q0 52 0 -2q0 -59 -14 -108q-21 -51 -86 -53h-64q-37 4 -57 18q-21 12 -31 35q-8 22 -10 47q-2 23 -2 41h-156v-57z" />
<glyph unicode="6" horiz-adv-x="723" d="M90 305q0 -133 76 -223q72 -92 207 -94q141 2 219 94q78 88 80 223q-2 139 -80 227q-78 86 -219 88q-70 0 -125 -26v22q-2 70 16 115q17 45 82 45h70q71 -2 84 -45q10 -45 8 -102h158v45q0 92 -46 174q-24 41 -65 63q-41 23 -102 23h-136q-116 -2 -172 -86 q-55 -82 -55 -174v-264v-105zM233 301q0 66 43 104q39 39 101 39q65 0 104 -39q39 -38 39 -104q0 -63 -39 -104q-39 -43 -104 -43q-66 0 -103 43q-41 41 -41 104z" />
<glyph unicode="7" horiz-adv-x="737" d="M90 776h367l-217 -776q-2 0 36 0h142l246 934h-574v-158z" />
<glyph unicode="8" horiz-adv-x="741" d="M90 272q2 -123 86 -206q80 -84 203 -86q123 2 205 86q80 83 82 206q-2 123 -82 205q41 35 61 90q21 56 21 115q-2 125 -82 199q-82 71 -205 73q-123 -2 -203 -73q-84 -74 -86 -199q0 -59 23 -115q22 -55 59 -90q-82 -82 -82 -205zM248 270q0 60 39 99q35 39 92 39t92 -39 t37 -99q-2 -55 -37 -94q-35 -41 -92 -41t-92 41q-39 39 -39 94zM248 680q0 57 39 88q35 29 92 29t92 -29q35 -31 37 -88q-2 -55 -37 -84q-35 -31 -92 -31t-92 31q-39 29 -39 84z" />
<glyph unicode="9" horiz-adv-x="723" d="M90 627q0 -136 84 -224q80 -90 217 -92q66 0 117 27q2 -35 -8 -102q-6 -31 -25 -54q-20 -22 -57 -26h-78v-156l86 -2q65 0 111 35q47 33 73 84q58 108 58 202v308q0 135 -68 225q-70 90 -209 92q-139 -2 -217 -92q-84 -90 -84 -225zM244 631q0 65 41 106q37 41 102 41 q66 0 104 -41q37 -41 37 -106q0 -62 -39 -101q-36 -43 -102 -43q-61 0 -100 43q-43 39 -43 101z" />
<glyph unicode=":" horiz-adv-x="330" d="M90 199q0 -33 25 -56q22 -24 55 -24q76 2 80 80q0 34 -23 57q-22 23 -57 23q-33 0 -55 -23q-25 -23 -25 -57zM90 629q0 -33 25 -56q22 -24 55 -24q76 2 80 80q0 35 -23 57q-22 23 -57 23q-33 0 -55 -23q-25 -22 -25 -57z" />
<glyph unicode=";" horiz-adv-x="330" d="M90 0h33q26 10 74 59q22 25 36 50q15 24 15 47v43q0 34 -21 57q-22 23 -57 23q-33 0 -55 -23q-25 -23 -25 -57q0 -33 25 -56q22 -24 55 -24h2q0 -68 -82 -119zM90 629q0 -33 25 -56q22 -24 55 -24q76 2 80 80q0 35 -23 57q-22 23 -57 23q-33 0 -55 -23q-25 -22 -25 -57z " />
<glyph unicode="&#x3c;" horiz-adv-x="795" d="M82 502l442 -502h207l-418 504l451 432h-207z" />
<glyph unicode="=" horiz-adv-x="596" d="M90 264h418v158h-418v-158zM90 510h418v158h-418v-158z" />
<glyph unicode="&#x3e;" horiz-adv-x="795" d="M82 936l450 -432l-417 -504h207l442 502l-475 434h-207z" />
<glyph unicode="?" horiz-adv-x="727" d="M90 287q0 -72 27 -109q24 -39 53 -53q72 -16 78 -12l100 98q-4 -2 -49 12q-18 6 -33 23q-18 12 -18 37q-2 26 12 47q16 20 86 20h98q62 0 105 23q41 22 67 55q50 72 50 162q0 -21 0 129q-2 108 -66 164q-63 53 -156 53h-135q-90 -2 -151 -74q-66 -74 -68 -184v-70h158 q0 29 2 60q2 28 10 53q16 53 86 55h64q55 0 77 -20q21 -23 21 -95q0 -61 0 -34q0 -58 -14 -88q-19 -33 -84 -33h-99q-116 -2 -168 -66q-53 -63 -53 -153zM322 76q0 -33 24 -56q23 -22 55 -24q76 4 80 80q0 35 -22 57q-23 23 -58 23q-32 0 -55 -23q-24 -22 -24 -57z" />
<glyph unicode="@" horiz-adv-x="1073" d="M90 465q0 -199 98 -330q97 -133 289 -135q92 0 152 25q61 22 96 59q37 37 51 84q12 45 12 88v192q-2 95 -61 156q-61 62 -156 64q-92 -2 -153 -64q-66 -61 -66 -156q0 -90 66 -151q61 -66 153 -66q41 0 72 15q-4 -74 -63 -82q-58 -10 -105 -8q-106 2 -166 92 q-61 86 -61 217q2 133 92 221q86 88 219 90q119 -2 209 -72q90 -71 98 -184v-92h162v90q-10 174 -145 295q-136 121 -322 123q-199 -2 -332 -135q-137 -133 -139 -336zM496 448q0 31 24 54q21 20 51 20q70 -4 74 -74v-8q-10 -65 -74 -67q-30 0 -51 24q-24 21 -24 51z" />
<glyph unicode="A" horiz-adv-x="1520" d="M39 469q4 -305 213 -506q203 -209 508 -213q305 4 510 213q204 201 209 506q-5 305 -209 510q-205 205 -510 209q-305 -4 -508 -209q-209 -205 -213 -510zM455 0l231 936h158l219 -936h-158l-35 156h-223l-35 -156h-157zM682 319h154l-78 295z" />
<glyph unicode="B" horiz-adv-x="1524" d="M39 469q4 -305 213 -506q203 -209 508 -213q305 4 510 213q204 201 209 506q-5 305 -209 510q-205 205 -510 209q-305 -4 -508 -209q-209 -205 -213 -510zM498 0v936h360q92 -2 154 -76q61 -74 63 -184q-2 -109 -65 -178q32 -43 57 -107q19 -55 19 -112q0 -10 -1 -21 q-2 -90 -55 -170q-27 -39 -68 -61q-43 -27 -104 -27h-360zM657 156h146q45 2 76 53q28 47 30 92q-2 47 -30 86q-31 39 -76 41h-146v-272zM657 586h146q45 0 76 24q28 23 30 64q-2 45 -30 73q-31 29 -76 29h-146v-190z" />
<glyph unicode="C" d="M39 469q4 -305 213 -506q203 -209 508 -213q305 4 510 213q204 201 209 506q-5 305 -209 510q-205 205 -510 209q-305 -4 -508 -209q-209 -205 -213 -510zM479 260v416q2 110 68 186q61 74 153 76h136q92 -2 155 -76q62 -76 64 -186v-90h-156v32q0 74 -18 117 q-21 41 -82 41h-64q-55 0 -76 -41q-22 -43 -22 -117v-301v-12q0 -52 16 -96q17 -51 82 -53h64q69 2 88 53q12 43 12 93v15v41h156v-98q0 -90 -50 -172q-24 -39 -65 -61q-43 -27 -104 -27h-136q-57 0 -98 27q-43 22 -70 61q-26 41 -38 86q-15 43 -15 86z" />
<glyph unicode="D" d="M39 469q4 -305 213 -506q203 -209 508 -213q305 4 510 213q204 201 209 506q-5 305 -209 510q-205 205 -510 209q-305 -4 -508 -209q-209 -205 -213 -510zM498 0v938h352q92 -2 155 -78q64 -76 66 -186v-418q0 -90 -49 -170q-27 -37 -68 -59q-43 -27 -104 -27h-352z M657 156h144q45 0 82 39q32 34 34 100v377q-2 49 -34 78q-37 26 -82 26h-144v-620z" />
<glyph unicode="E" horiz-adv-x="1530" d="M39 469q4 -305 213 -506q203 -209 508 -213q305 4 510 213q204 201 209 506q-5 305 -209 510q-205 205 -510 209q-305 -4 -508 -209q-209 -205 -213 -510zM477 0v938h574v-162h-414v-190h260v-158h-260v-272h414v-156h-574z" />
<glyph unicode="F" horiz-adv-x="1530" d="M39 469q4 -305 213 -506q203 -209 508 -213q305 4 510 213q204 201 209 506q-5 305 -209 510q-205 205 -510 209q-305 -4 -508 -209q-209 -205 -213 -510zM498 0v938h573v-162h-414v-190h260v-158h-260v-428q2 0 -24 0h-135z" />
<glyph unicode="G" d="M39 469q4 -305 213 -506q203 -209 508 -213q305 4 510 213q204 201 209 506q-5 305 -209 510q-205 205 -510 209q-305 -4 -508 -209q-209 -205 -213 -510zM479 260v416q2 110 68 186q61 74 153 76h136q92 -2 155 -76q62 -76 64 -186v-90h-158v32q0 74 -18 117 q-21 41 -80 41h-64q-55 0 -76 -41q-22 -43 -22 -117v-301v-12q0 -52 16 -96q17 -51 82 -53h64q55 0 77 34q21 33 21 78v45h-94v158h252v-121v-90q0 -90 -52 -172q-24 -39 -65 -61q-41 -27 -102 -27h-136q-57 0 -98 27q-43 22 -70 61q-26 41 -38 86q-15 43 -15 86z" />
<glyph unicode="H" d="M39 469q4 -305 213 -506q203 -209 508 -213q305 4 510 213q204 201 209 506q-5 305 -209 510q-205 205 -510 209q-305 -4 -508 -209q-209 -205 -213 -510zM479 0v936h158v-350h260v350h158v-936h-158v428h-260v-428h-158z" />
<glyph unicode="I" horiz-adv-x="1515" d="M39 469q4 -305 213 -506q203 -209 508 -213q305 4 510 213q204 201 209 506q-5 305 -209 510q-205 205 -510 209q-305 -4 -508 -209q-209 -205 -213 -510zM684 0v936h160v-936h-160z" />
<glyph unicode="J" horiz-adv-x="1530" d="M39 469q4 -305 213 -506q203 -209 508 -213q305 4 510 213q204 201 209 506q-5 305 -209 510q-205 205 -510 209q-305 -4 -508 -209q-209 -205 -213 -510zM438 253v7v86h158v-29q0 -26 2 -55t10 -53q12 -51 80 -51h70q65 0 84 47q14 45 14 112v619h154v-676 q0 -90 -52 -172q-26 -39 -67 -61q-43 -27 -105 -27h-135q-57 0 -98 27q-41 22 -66 61q-49 79 -49 165z" />
<glyph unicode="K" d="M39 469q4 -305 213 -506q203 -209 508 -213q305 4 510 213q204 201 209 506q-5 305 -209 510q-205 205 -510 209q-305 -4 -508 -209q-209 -205 -213 -510zM479 0v936h158l2 -283l287 283h206l-430 -432l418 -504h-207l-276 344v-344h-158z" />
<glyph unicode="L" d="M39 469q4 -305 213 -506q203 -209 508 -213q305 4 510 213q204 201 209 506q-5 305 -209 510q-205 205 -510 209q-305 -4 -508 -209q-209 -205 -213 -510zM520 0v934h135q25 0 23 0v-776h414v-158h-572z" />
<glyph unicode="M" d="M39 469q4 -305 213 -506q203 -209 508 -213q305 4 510 213q204 201 209 506q-5 305 -209 510q-205 205 -510 209q-305 -4 -508 -209q-209 -205 -213 -510zM397 0v936h164l217 -682l219 682h158v-938h-158v442l-139 -440h-158l-145 440v-440h-158z" />
<glyph unicode="N" horiz-adv-x="1515" d="M39 469q4 -305 213 -506q203 -209 508 -213q305 4 510 213q204 201 209 506q-5 305 -209 510q-205 205 -510 209q-305 -4 -508 -209q-209 -205 -213 -510zM500 0v936h157l258 -543v543h158v-936h-2h-156h-2l-256 539v-539h-157z" />
<glyph unicode="O" horiz-adv-x="1515" d="M39 469q4 -305 213 -506q203 -209 508 -213q305 4 510 213q204 201 209 506q-5 305 -209 510q-205 205 -510 209q-305 -4 -508 -209q-209 -205 -213 -510zM479 260v416q2 110 68 184q61 74 153 76h136q92 -2 155 -76q62 -74 64 -184v-416q0 -90 -50 -172q-24 -39 -65 -61 q-43 -27 -104 -27h-136q-57 0 -98 27q-43 22 -70 61q-51 82 -53 172zM637 305q0 -52 16 -96q17 -51 82 -53h64q67 2 86 53q12 43 12 93v15v301q0 74 -18 117q-21 41 -80 41h-64q-55 0 -76 -41q-22 -43 -22 -117v-301v-12z" />
<glyph unicode="P" d="M39 469q4 -305 213 -506q203 -209 508 -213q305 4 510 213q204 201 209 506q-5 305 -209 510q-205 205 -510 209q-305 -4 -508 -209q-209 -205 -213 -510zM506 0v936h366q93 -2 154 -74q61 -74 63 -184q-2 -107 -65 -176q-66 -72 -158 -74h-202v-428h-158zM664 586h153 q45 0 76 26q29 23 31 64q-2 43 -31 71q-31 29 -76 29h-153v-190z" />
<glyph unicode="Q" d="M39 469q4 -305 213 -506q203 -209 508 -213q305 4 510 213q204 201 209 506q-5 305 -209 510q-205 205 -510 209q-305 -4 -508 -209q-209 -205 -213 -510zM479 260v416q2 110 68 184q61 74 153 76h136q92 -2 155 -76q62 -74 64 -184v-416q0 -51 -17 -104q-18 -54 -55 -95 h72v-151h-158v53q0 27 -21 33q-20 4 -40 4h-136q-57 0 -98 27q-43 22 -70 61q-51 82 -53 172zM637 305q0 -52 16 -96q17 -51 82 -53h64q67 2 86 53q12 43 12 93v15v301q0 74 -18 117q-21 41 -80 41h-64q-55 0 -76 -41q-22 -43 -22 -117v-301v-12z" />
<glyph unicode="R" d="M39 469q4 -305 213 -506q203 -209 508 -213q305 4 510 213q204 201 209 506q-5 305 -209 510q-205 205 -510 209q-305 -4 -508 -209q-209 -205 -213 -510zM500 0v936h366q92 -2 154 -74q61 -74 63 -184q-2 -109 -65 -176q55 -74 57 -176v-205q10 -107 17 -121h-164 q-6 2 -11 88v180q0 76 -18 119q-20 41 -80 41h-162v-428h-157zM657 586h179q77 16 81 90q-2 43 -30 71q-31 29 -76 29h-154v-190z" />
<glyph unicode="S" d="M39 469q4 -305 213 -506q203 -209 508 -213q305 4 510 213q204 201 209 506q-5 305 -209 510q-205 205 -510 209q-305 -4 -508 -209q-209 -205 -213 -510zM479 258v70h158q0 -27 2 -56q2 -30 10 -57q17 -57 86 -59h64h8q49 0 69 24q21 27 21 94q0 45 0 15q0 59 -14 90 q-19 31 -84 31h-99q-57 0 -98 22q-43 23 -70 55q-53 72 -53 162v-10v78q2 108 68 164q61 55 153 55h136q92 -2 155 -76q62 -74 64 -184v-70h-158q0 9 1 17q0 51 -11 98q-8 24 -29 41q-20 14 -59 14h-64q-55 0 -76 -24q-22 -25 -22 -76v-10q0 -33 12 -62q17 -39 86 -39h98 q119 -2 172 -76q50 -71 50 -163v4v-113q-2 -104 -66 -160q-63 -57 -156 -57h-135q-90 2 -151 78q-66 74 -68 180z" />
<glyph unicode="T" horiz-adv-x="1515" d="M39 469q4 -305 213 -506q203 -209 508 -213q305 4 510 213q204 201 209 506q-5 305 -209 510q-205 205 -510 209q-305 -4 -508 -209q-209 -205 -213 -510zM500 776v158h575v-158h-209v-776h-157v776h-209z" />
<glyph unicode="U" d="M39 469q4 -305 213 -506q203 -209 508 -213q305 4 510 213q204 201 209 506q-5 305 -209 510q-205 205 -510 209q-305 -4 -508 -209q-209 -205 -213 -510zM500 260v676h157v-619v-11q0 -53 17 -97q16 -51 82 -53h63q68 2 86 53q12 43 12 93v15v619h158v-676 q0 -90 -49 -172q-25 -39 -66 -61q-43 -27 -104 -27h-135q-57 0 -98 27q-43 22 -70 61q-51 82 -53 172z" />
<glyph unicode="V" horiz-adv-x="1515" d="M39 469q4 -305 213 -506q203 -209 508 -213q305 4 510 213q204 201 209 506q-5 305 -209 510q-205 205 -510 209q-305 -4 -508 -209q-209 -205 -213 -510zM463 936h157l146 -614l147 614h158l-225 -936h-158z" />
<glyph unicode="W" horiz-adv-x="1515" d="M39 469q4 -305 213 -506q203 -209 508 -213q305 4 510 213q204 201 209 506q-5 305 -209 510q-205 205 -510 209q-305 -4 -508 -209q-209 -205 -213 -510zM272 936h166l101 -508l143 508h158l147 -508l105 508h157l-184 -936h-158l-145 608l-148 -608h-157z" />
<glyph unicode="X" horiz-adv-x="1515" d="M39 469q4 -305 213 -506q203 -209 508 -213q305 4 510 213q204 201 209 506q-5 305 -209 510q-205 205 -510 209q-305 -4 -508 -209q-209 -205 -213 -510zM442 0l236 471l-236 465h178l146 -289l147 289h179l-236 -465l236 -471h-179l-147 295l-146 -295h-178z" />
<glyph unicode="Y" horiz-adv-x="1515" d="M39 469q4 -305 213 -506q203 -209 508 -213q305 4 510 213q204 201 209 506q-5 305 -209 510q-205 205 -510 209q-305 -4 -508 -209q-209 -205 -213 -510zM446 936h179l145 -494l147 494h179l-236 -670v-266h-178v266z" />
<glyph unicode="Z" horiz-adv-x="1530" d="M39 469q4 -305 213 -506q203 -209 508 -213q305 4 510 213q204 201 209 506q-5 305 -209 510q-205 205 -510 209q-305 -4 -508 -209q-209 -205 -213 -510zM500 0l323 776h-321v160h573l-325 -780h325v-156h-575z" />
<glyph unicode="[" horiz-adv-x="496" d="M88 -205h369v156h-209v1030h209v162h-369v-1348z" />
<glyph unicode="\" horiz-adv-x="473" d="M18 1141h160l287 -1346h-160z" />
<glyph unicode="]" horiz-adv-x="496" d="M41 -49v-156h369v1348h-369v-162h209v-1030h-209z" />
<glyph unicode="^" horiz-adv-x="735" d="M90 424l289 280l289 -274v207l-293 299l-285 -299v-213z" />
<glyph unicode="_" horiz-adv-x="733" d="M-12 -29v-157h757v157h-757z" />
<glyph unicode="`" horiz-adv-x="590" d="M195 1214q-7 -32 10 -61q16 -25 24 -35q23 -26 60 -43q18 -10 41 -29q20 -20 45 -53q8 4 39 25q-27 59 -29 104q-2 43 -25 80q-6 12 -22 37q-19 29 -47 37q-33 6 -62 -12q-28 -21 -34 -50z" />
<glyph unicode="a" horiz-adv-x="737" d="M66 0h157l35 156h223l35 -156h158l-219 936h-158zM293 319l76 295l77 -295h-153z" />
<glyph unicode="b" horiz-adv-x="731" d="M88 0h360q62 0 105 27q41 22 67 61q29 37 44 84q12 43 12 86q1 10 1 20q0 58 -20 113q-24 64 -57 107q64 69 66 178q-2 110 -64 184q-61 74 -154 76h-360v-936zM248 156v272h145q45 -2 76 -41q29 -39 31 -86q-2 -45 -31 -92q-31 -51 -76 -53h-145zM248 586v190h145 q45 0 76 -29q29 -28 31 -73q-2 -41 -31 -64q-31 -24 -76 -24h-145z" />
<glyph unicode="c" horiz-adv-x="727" d="M90 260q0 -90 53 -172q27 -39 70 -61q41 -27 98 -27h135q62 0 105 27q41 22 65 61q50 82 50 172v98h-156v-41v-15q0 -51 -12 -93q-19 -51 -88 -53h-64q-65 2 -82 53q-16 44 -16 96v12v301q0 74 22 117q21 41 76 41h64q61 0 81 -41q19 -43 19 -117v-32h156v90 q-2 110 -64 186q-63 74 -156 76h-135q-92 -2 -153 -76q-66 -76 -68 -186v-416z" />
<glyph unicode="d" horiz-adv-x="731" d="M88 0h352q62 0 105 27q41 22 67 59q27 37 39 84q10 43 10 86v418q-2 110 -65 186q-64 76 -156 78h-352v-938zM248 156v620h143q45 0 82 -26q33 -29 35 -78v-377q-2 -66 -35 -100q-37 -39 -82 -39h-143z" />
<glyph unicode="e" horiz-adv-x="737" d="M88 0h573v156h-413v272h260v158h-260v190h413v162h-573v-938z" />
<glyph unicode="f" horiz-adv-x="737" d="M88 0h135q27 0 25 0v428h260v158h-260v190h416v160h-576v-936z" />
<glyph unicode="g" horiz-adv-x="747" d="M90 260q0 -90 53 -172q27 -39 70 -61q41 -27 98 -27h135q62 0 103 27q41 22 65 61q52 82 52 172v90v121h-252v-158h94v-45q0 -47 -21 -78q-22 -34 -77 -34h-64q-65 2 -82 53q-16 44 -16 96v12v301q0 74 22 117q21 41 76 41h64q59 0 79 -41q19 -43 19 -117v-32h158v90 q-2 110 -64 186q-63 74 -156 76h-135q-92 -2 -153 -76q-66 -76 -68 -186v-416z" />
<glyph unicode="h" horiz-adv-x="762" d="M90 0h158v428h260v-428h158v936h-158v-350h-260v350h-158v-936z" />
<glyph unicode="i" horiz-adv-x="330" d="M90 0h160v936h-160v-936z" />
<glyph unicode="j" horiz-adv-x="698" d="M90 253q0 -86 49 -165q25 -39 66 -61q41 -27 98 -27h135q62 0 105 27q41 22 67 61q51 82 51 172v676h-153v-619q0 -67 -14 -112q-19 -47 -84 -47h-70q-68 0 -80 51q-8 24 -10 53t-2 55v29h-158v-86v-7z" />
<glyph unicode="k" horiz-adv-x="795" d="M90 0h158v344l276 -344h207l-418 504l451 432h-207l-307 -283l-2 283h-158v-936z" />
<glyph unicode="l" horiz-adv-x="737" d="M90 0h571v158h-413v776q2 0 -23 0h-135v-934z" />
<glyph unicode="m" horiz-adv-x="922" d="M90 0h158v440l145 -440h158l139 440v-442h158v938h-158l-219 -682l-217 682h-164v-936z" />
<glyph unicode="n" horiz-adv-x="733" d="M90 0h158v539l256 -539h2h155h3v936h-158v-543l-258 543h-158v-936z" />
<glyph unicode="o" horiz-adv-x="741" d="M90 260q2 -90 53 -172q27 -39 70 -61q41 -27 98 -27h135q62 0 105 27q41 22 65 61q50 82 50 172v416q-2 110 -64 184q-63 74 -156 76h-135q-92 -2 -153 -76q-66 -74 -68 -184v-416zM248 305v12v301q0 74 22 117q21 41 76 41h64q59 0 79 -41q19 -43 19 -117v-301v-15 q0 -51 -12 -93q-19 -51 -86 -53h-64q-65 2 -82 53q-16 44 -16 96z" />
<glyph unicode="p" horiz-adv-x="727" d="M90 0h158v428h203q92 2 157 74q64 69 66 176q-2 110 -64 184q-61 72 -153 74h-367v-936zM248 586v190h153q45 0 76 -29q29 -28 31 -71q-2 -41 -31 -64q-31 -26 -76 -26h-153z" />
<glyph unicode="q" horiz-adv-x="741" d="M90 260q2 -90 53 -172q27 -39 70 -61q41 -27 98 -27h135q21 0 41 -4q21 -6 21 -33v-53h158v151h-72q37 41 55 95q17 53 17 104v416q-2 110 -64 184q-63 74 -156 76h-135q-92 -2 -153 -76q-66 -74 -68 -184v-416zM248 305v12v301q0 74 22 117q21 41 76 41h64q59 0 79 -41 q19 -43 19 -117v-301v-15q0 -50 -12 -93q-19 -51 -86 -53h-64q-65 2 -82 53q-16 44 -16 96z" />
<glyph unicode="r" horiz-adv-x="727" d="M90 0h158v428h162q59 0 79 -41q19 -43 19 -119v-180q6 -86 10 -88h164q-10 14 -16 121v205q-2 102 -58 176q64 67 66 176q-2 110 -64 184q-61 72 -153 74h-367v-936zM248 586v190h153q45 0 76 -29q29 -28 31 -71q-4 -74 -82 -90h-178z" />
<glyph unicode="s" horiz-adv-x="727" d="M90 258q2 -106 68 -180q61 -76 151 -78h135q93 0 156 57q64 56 66 160v113v-4q0 92 -50 163q-53 74 -172 76h-98q-70 0 -86 39q-12 29 -12 62v10q0 51 22 76q21 24 76 24h64q38 0 59 -14q20 -17 29 -41q10 -47 10 -98v-17h158v70q-2 110 -64 184q-63 74 -156 76h-135 q-92 0 -153 -55q-66 -56 -68 -164v-78v10q0 -90 53 -162q27 -32 70 -55q41 -22 98 -22h99q65 0 84 -31q14 -31 14 -90q0 30 0 -15q0 -67 -21 -94q-20 -24 -69 -24h-8h-64q-70 2 -86 59q-8 27 -10 57q-2 29 -2 56h-158v-70z" />
<glyph unicode="t" horiz-adv-x="737" d="M90 776h209v-776h158v776h209v158h-576v-158z" />
<glyph unicode="u" horiz-adv-x="741" d="M90 260q2 -90 53 -172q27 -39 70 -61q41 -27 98 -27h135q62 0 105 27q41 22 65 61q50 82 50 172v676h-158v-619v-15q0 -51 -12 -93q-19 -51 -86 -53h-64q-65 2 -82 53q-16 44 -16 96v12v619h-158v-676z" />
<glyph unicode="v" horiz-adv-x="752" d="M74 936l225 -936h158l225 936h-158l-147 -614l-146 614h-157z" />
<glyph unicode="w" horiz-adv-x="1137" d="M88 936l184 -936h158l147 608l146 -608h158l184 936h-158l-104 -508l-148 508h-157l-144 -508l-100 508h-166z" />
<glyph unicode="x" horiz-adv-x="795" d="M94 0h178l146 295l147 -295h178l-235 471l235 465h-178l-147 -289l-146 289h-178l236 -465z" />
<glyph unicode="y" horiz-adv-x="758" d="M57 936l236 -670v-266h178v266l236 670h-179l-147 -494l-145 494h-179z" />
<glyph unicode="z" horiz-adv-x="737" d="M90 0h576v156h-326l326 780h-574v-160h322z" />
<glyph unicode="{" horiz-adv-x="473" d="M53 500q2 0 53 -27q23 -14 39 -41q15 -27 15 -70q-2 -118 -21 -190q-22 -72 -24 -117q0 -90 53 -172q27 -39 70 -61q41 -25 98 -27h98v156h-63q-66 2 -82 53q-19 49 -17 109q0 30 21 90q18 61 20 164q0 49 -14 77q-16 27 -35 39q-51 19 -53 17q2 -2 53 30q19 15 35 45 q14 29 14 72t-4 72q-6 26 -16 45q-6 20 -12 35q-9 12 -9 24q0 74 23 117q20 41 76 41h63v162h-98q-92 -2 -154 -76q-65 -76 -67 -186q0 -37 20 -88q19 -54 21 -146q-4 -80 -50 -113q-51 -34 -53 -34z" />
<glyph unicode="|" horiz-adv-x="330" d="M90 -205h160v1346h-160v-1346z" />
<glyph unicode="}" horiz-adv-x="467" d="M45 -49h64q65 2 83 53q15 49 15 109q-2 30 -21 90q-20 61 -20 164q0 49 18 77q17 27 35 39q45 19 49 17q-4 -2 -49 30q-18 15 -35 45q-18 29 -18 72t8 72q6 26 12 45q11 20 17 35q4 12 4 24q0 74 -21 117q-22 41 -77 41h-64v162h98q93 -2 158 -76q64 -76 64 -186 q-3 -37 -21 -88q-20 -54 -22 -146q2 -80 53 -113q45 -34 49 -34q-4 0 -53 -27q-19 -14 -35 -41q-19 -27 -19 -70q5 -118 25 -190t23 -117q4 -90 -50 -172q-26 -39 -69 -61q-43 -25 -103 -27h-98v156z" />
<glyph unicode="~" horiz-adv-x="758" d="M98 1012q90 16 142 20q49 0 133 -20q145 -35 286 0v137q-90 -19 -141 -21q-27 0 -59 7q-35 2 -84 14q-131 37 -277 0v-137z" />
<glyph unicode="&#xa1;" horiz-adv-x="330" d="M80 -4h180l-31 731h-118zM90 856q0 -33 25 -55q22 -25 55 -25q35 0 57 25q23 22 23 55q0 35 -23 57q-22 23 -57 23q-78 -4 -80 -80z" />
<glyph unicode="&#xa2;" horiz-adv-x="727" d="M90 322q0 -89 49 -166q25 -37 64 -62q37 -24 90 -33v-63h158v63q114 9 165 91q50 81 50 170v77h-156v-20q2 -60 -12 -109q-19 -51 -88 -53h-64q-65 2 -82 53q-18 49 -16 109v158q0 73 22 116q21 41 76 41h64q61 0 81 -39q19 -41 19 -114v-19h156v72q-2 108 -62 184 q-61 74 -153 78v80h-158v-80q-84 -10 -141 -84q-60 -74 -62 -178v-272z" />
<glyph unicode="&#xa3;" horiz-adv-x="737" d="M90 0h154h264q43 0 86 6q41 6 72 35v158q-31 -25 -76 -33q-45 -10 -82 -10h-260v190h153v158h-153v114q-2 70 14 115q17 45 80 45h70q67 -2 84 -49q10 -49 10 -111v-30h158v88q0 92 -48 174q-24 41 -65 63q-41 23 -103 23h-135q-57 0 -100 -23q-43 -22 -70 -61 q-53 -78 -53 -176v-152v-524z" />
<glyph unicode="&#xa4;" horiz-adv-x="723" d="M90 385q2 -172 84 -283q80 -112 199 -114q121 2 204 114q82 111 84 283v168q-2 174 -84 285q-83 108 -204 110q-119 -2 -199 -110q-82 -111 -84 -285v-168zM246 401v127q0 111 39 176q34 66 92 68q59 -2 96 -68q35 -65 35 -176v-127q0 -108 -35 -176q-37 -71 -96 -71 q-58 0 -92 71q-39 68 -39 176z" />
<glyph unicode="&#xa5;" horiz-adv-x="758" d="M57 936l174 -496h-55v-157h117q-2 4 0 -88h-117v-158h117v-37h178v37h123v158h-123v88h123v157h-62l175 496h-179l-147 -494l-145 494h-179z" />
<glyph unicode="&#xa7;" horiz-adv-x="727" d="M90 190q2 -75 68 -131q61 -57 151 -59h135q93 0 156 53q64 47 66 123q0 94 0 76q0 55 -41 104q18 19 30 35q11 17 11 43v76q0 63 -50 108q-53 43 -172 46h-98q-47 0 -72 18q-24 16 -24 39q-2 51 96 55h64q59 0 79 -6q19 -10 19 -53h158q0 -2 0 24q-2 78 -64 135 q-63 58 -156 60h-135q-92 -2 -153 -53q-31 -25 -47 -56q-21 -34 -21 -71v-39q0 -62 55 -113q-24 -18 -39 -39q-16 -20 -16 -53v-53q2 -72 68 -117q61 -45 151 -45h135q37 0 56 -21q16 -20 14 -49q-2 -28 -27 -49q-26 -24 -77 -24h-64q-70 0 -86 32q-14 29 -12 68h-158v-64z M248 473q0 29 31 43q26 14 69 14h55q45 0 76 -14q29 -14 29 -43q0 -25 -29 -37q-31 -16 -76 -16h-55q-43 0 -69 16q-31 12 -31 37z" />
<glyph unicode="&#xa8;" horiz-adv-x="731" d="M131 1079q0 -33 25 -55q22 -25 55 -25q76 2 80 80q0 35 -23 58q-22 22 -57 22q-33 0 -55 -22q-25 -23 -25 -58zM459 1079q0 -33 24 -55q23 -25 56 -25q75 2 79 80q0 35 -22 58q-23 22 -57 22q-33 0 -56 -22q-24 -23 -24 -58z" />
<glyph unicode="&#xa9;" horiz-adv-x="727" d="M90 260q0 -90 53 -172q27 -39 70 -61q41 -27 98 -27h135q62 0 105 27q41 22 65 61q50 82 50 172v98h-156v-41q2 -59 -12 -108q-19 -51 -88 -53h-64q-65 2 -82 53q-18 49 -16 108v301q0 74 22 117q21 41 76 41h64q61 0 81 -41q19 -43 19 -117v-32h156v90q-2 110 -64 186 q-63 74 -156 76h-135q-92 -2 -153 -76q-66 -76 -68 -186v-416z" />
<glyph unicode="&#xaa;" horiz-adv-x="580" d="M86 680q0 -107 55 -180q56 -76 160 -76q51 0 90 20q6 -10 19 -16h153q-33 27 -47 82v170q0 110 -53 182q-55 72 -162 74q-104 -2 -160 -74q-55 -72 -55 -182zM238 680q-2 47 12 76q10 28 51 28t55 -28q9 -29 9 -76q0 -43 -9 -72q-14 -33 -55 -33t-51 33q-14 29 -12 72z " />
<glyph unicode="&#xab;" horiz-adv-x="1104" d="M82 461l299 -305h213l-281 307l275 313h-207zM512 461l299 -305h213l-281 307l275 313h-207z" />
<glyph unicode="&#xac;" horiz-adv-x="967" d="M92 428h633v-270h158v428h-791v-131q0 -29 0 -27z" />
<glyph unicode="&#xad;" horiz-adv-x="577" d="M90 428h418v158h-418v-158z" />
<glyph unicode="&#xae;" horiz-adv-x="987" d="M82 469q2 -182 127 -303q123 -127 305 -129q184 2 305 129q123 121 125 303q-2 182 -125 307q-121 123 -305 125q-182 -2 -305 -125q-125 -125 -127 -307zM201 469q2 133 92 223q90 88 221 90q133 -2 223 -90q88 -90 90 -223q-2 -131 -90 -221q-90 -90 -223 -92 q-131 2 -221 92t-92 221zM346 225h94v195h97q63 -2 59 -96v-48q4 -51 6 -51h98q-6 8 -10 72q0 63 0 61q0 62 -35 105q39 37 41 94q-2 66 -37 104q-36 39 -94 39h-219v-475zM440 514v90h92q29 0 48 -10q16 -12 16 -37q-2 -39 -49 -43h-107z" />
<glyph unicode="&#xaf;" horiz-adv-x="758" d="M162 1012h438v137h-438v-137z" />
<glyph unicode="&#xb0;" horiz-adv-x="666" d="M72 684q0 -107 75 -180q74 -76 181 -76q110 0 182 76q72 73 74 180q-2 111 -74 182q-72 72 -182 74q-107 -2 -181 -74q-75 -71 -75 -182zM223 684q0 45 33 76q29 28 72 28q47 0 75 -28q29 -31 29 -76q0 -43 -29 -72q-28 -32 -75 -32q-43 0 -72 32q-33 29 -33 72z" />
<glyph unicode="&#xb1;" horiz-adv-x="666" d="M90 2h502v154h-502v-154zM90 428h178v-170h158v170h162v158h-162v172h-158v-172h-178v-158z" />
<glyph unicode="&#xb2;" horiz-adv-x="727" d="M88 0h576v158h-416v61q-2 43 12 96q16 54 86 56h98q119 2 172 67q50 64 50 152q0 -21 0 129q-2 108 -66 164q-63 53 -156 53h-135q-90 -2 -151 -74q-66 -74 -68 -184v-70h158q-2 60 12 115q16 53 86 55h64q55 0 77 -20q21 -25 21 -97q0 -61 0 -34q0 -58 -14 -78 q-19 -23 -84 -23h-99q-116 -2 -168 -75q-53 -72 -53 -162q0 14 0 -125v-111q-2 -51 -2 -53z" />
<glyph unicode="&#xb3;" horiz-adv-x="727" d="M90 238q2 -107 68 -170q61 -68 151 -68h135q93 0 156 57q64 56 66 160q0 135 0 111q0 45 -9 92q-12 47 -39 76q27 28 39 73q9 41 9 82q0 -37 0 66q-2 108 -66 164q-63 55 -156 55h-135q-90 -2 -151 -66q-66 -65 -68 -174v-69h158q-2 59 12 104q16 43 86 45h64 q55 0 77 -22q21 -25 21 -74q2 -37 -12 -64q-15 -30 -86 -30h-84v-158h84q65 0 84 -35q14 -35 14 -94q0 29 0 -29q0 -69 -21 -92q-22 -22 -77 -22h-64q-70 2 -86 49q-14 45 -12 102h-158v-69z" />
<glyph unicode="&#xb4;" horiz-adv-x="590" d="M192 1018q31 -21 39 -25q29 33 50 53q20 19 38 29q19 12 35 21q13 8 23 22q8 10 24 35q19 29 13 61q-9 29 -37 50q-64 34 -109 -25q-16 -25 -22 -37q-21 -37 -21 -80q-2 -45 -33 -104z" />
<glyph unicode="&#xb5;" horiz-adv-x="883" d="M90 -86h158v160q16 -31 49 -51q29 -23 55 -23h94q91 2 142 55q71 -55 174 -55h69v154q-53 -2 -102 12q-51 12 -63 67v703h-158v-301v-311q0 -74 -19 -119q-20 -47 -79 -51h-64q-65 2 -82 53q-18 49 -16 110v619h-158v-1022z" />
<glyph unicode="&#xb6;" horiz-adv-x="727" d="M82 678q0 -96 57 -164q56 -66 133 -84v-430h158v428h78v-428h158v936h-367q-90 -2 -152 -74q-65 -74 -65 -184z" />
<glyph unicode="&#xb8;" horiz-adv-x="727" d="M324 -23q0 125 0 105h94v-102q-2 -15 8 -25q10 -12 51 -14h60q67 0 104 -54q37 -51 37 -122q0 -68 -33 -119q-35 -56 -108 -58h-82q-54 2 -90 47q-41 44 -41 109v41h94q-2 -33 8 -66q10 -32 51 -34h37q35 2 53 26q15 23 15 56q0 32 -17 57q-18 22 -51 22h-57 q-70 2 -101 41q-32 39 -32 90z" />
<glyph unicode="&#xb9;" horiz-adv-x="399" d="M90 776h82v-776h160v938h-152l-90 -72v-90z" />
<glyph unicode="&#xba;" horiz-adv-x="580" d="M86 680q0 -107 55 -180q56 -76 160 -76q107 0 162 76q53 73 53 180q0 110 -53 182q-55 72 -162 74q-104 -2 -160 -74q-55 -72 -55 -182zM238 680q-2 47 12 76q10 28 51 28t55 -28q9 -29 9 -76q0 -43 -9 -72q-14 -33 -55 -33t-51 33q-14 29 -12 72z" />
<glyph unicode="&#xbb;" horiz-adv-x="1079" d="M82 156l280 307l-274 313h207l299 -315l-299 -305h-213zM512 156l281 307l-275 313h207l299 -315l-299 -305h-213z" />
<glyph unicode="&#xbf;" horiz-adv-x="727" d="M90 213q2 -104 68 -160q61 -55 153 -57h135q93 2 156 78q62 73 64 180v70h-158q0 -27 2 -56q-2 -30 -12 -55q-9 -25 -29 -41q-21 -16 -59 -16h-64q-55 0 -76 22q-22 23 -22 92q0 62 0 35q-2 60 16 90q17 31 82 31h98q119 2 172 68q50 63 50 151q0 76 -23 115t-55 49 q-76 18 -80 10l-100 -98q4 0 51 -10q18 -7 35 -21q14 -14 14 -43q2 -22 -12 -43q-9 -8 -29 -14q-21 -8 -57 -8h-99q-116 -2 -168 -76q-53 -72 -53 -164q0 20 0 -129zM274 856q0 -33 25 -55q23 -25 55 -25q35 0 58 25q22 22 22 55q0 35 -22 57q-23 23 -58 23q-78 -4 -80 -80z " />
<glyph unicode="&#xc0;" horiz-adv-x="1520" d="M39 469q4 -305 213 -506q203 -209 508 -213q305 4 510 213q204 201 209 506q-5 305 -209 510q-205 205 -510 209q-305 -4 -508 -209q-209 -205 -213 -510zM455 0l231 936h158l219 -936h-158l-35 156h-223l-35 -156h-157zM586 1474q-6 -32 8 -61q18 -25 24 -35 q23 -26 60 -43q18 -10 41 -28q20 -21 45 -54q8 4 39 25q-27 59 -29 104q-2 43 -24 80q-7 12 -23 37q-18 29 -47 37q-33 6 -62 -12q-26 -21 -32 -50zM682 319h154l-78 295z" />
<glyph unicode="&#xc1;" horiz-adv-x="1520" d="M39 469q4 -305 213 -506q203 -209 508 -213q305 4 510 213q204 201 209 506q-5 305 -209 510q-205 205 -510 209q-305 -4 -508 -209q-209 -205 -213 -510zM455 0l231 936h158l219 -936h-158l-35 156h-223l-35 -156h-157zM657 1253q31 -20 39 -24q29 32 49 53q21 18 39 29 q19 12 35 20q12 8 23 23q8 10 24 34q19 29 13 62q-9 29 -37 49q-64 35 -109 -25q-16 -24 -22 -36q-21 -37 -21 -80q-2 -45 -33 -105zM682 319h154l-78 295z" />
<glyph unicode="&#xc2;" horiz-adv-x="1520" d="M39 469q4 -305 213 -506q203 -209 508 -213q305 4 510 213q204 201 209 506q-5 305 -209 510q-205 205 -510 209q-305 -4 -508 -209q-209 -205 -213 -510zM455 0l231 936h158l219 -936h-158l-35 156h-223l-35 -156h-157zM577 1206l173 168l174 -164v123l-177 180 l-170 -180v-127zM682 319h154l-78 295z" />
<glyph unicode="&#xc3;" horiz-adv-x="1520" d="M39 469q4 -305 213 -506q203 -209 508 -213q305 4 510 213q204 201 209 506q-5 305 -209 510q-205 205 -510 209q-305 -4 -508 -209q-209 -205 -213 -510zM455 0l231 936h158l219 -936h-158l-35 156h-223l-35 -156h-157zM487 1278q90 16 142 20q49 0 133 -20 q145 -35 287 0v137q-91 -18 -142 -20q-26 0 -59 6q-35 2 -84 14q-131 37 -277 0v-137zM682 319h154l-78 295z" />
<glyph unicode="&#xc4;" horiz-adv-x="1520" d="M39 469q4 -305 213 -506q203 -209 508 -213q305 4 510 213q204 201 209 506q-5 305 -209 510q-205 205 -510 209q-305 -4 -508 -209q-209 -205 -213 -510zM455 0l231 936h158l219 -936h-158l-35 156h-223l-35 -156h-157zM520 1325q0 -33 25 -55q22 -25 55 -25q76 2 80 80 q0 35 -23 57q-22 23 -57 23q-33 0 -55 -23q-25 -22 -25 -57zM682 319h154l-78 295zM848 1325q0 -33 24 -55q23 -25 56 -25q75 2 80 80q0 35 -23 57q-23 23 -57 23q-33 0 -56 -23q-24 -22 -24 -57z" />
<glyph unicode="&#xc5;" horiz-adv-x="1520" d="M39 469q4 -305 213 -506q203 -209 508 -213q305 4 510 213q204 201 209 506q-5 305 -209 510q-205 205 -510 209q-305 -4 -508 -209q-209 -205 -213 -510zM455 0l231 936h158l219 -936h-158l-35 156h-223l-35 -156h-157zM598 1401q0 -76 53 -127q51 -53 125 -53 q78 0 129 53q51 51 51 127t-51 127t-129 51q-74 0 -125 -51q-53 -51 -53 -127zM682 319h154l-78 295zM702 1401q2 69 74 73q70 -4 74 -73q-4 -72 -74 -74q-72 2 -74 74z" />
<glyph unicode="&#xc6;" horiz-adv-x="1526" d="M39 469q4 -305 213 -506q203 -209 508 -213q305 4 510 213q204 201 209 506q-5 305 -209 510q-205 205 -510 209q-305 -4 -508 -209q-209 -205 -213 -510zM268 0l443 936h512v-160h-353v-190h199v-158h-199v-272h353v-156h-508h-2v156h-191l-69 -156h-185zM602 319h111 v215z" />
<glyph unicode="&#xc7;" d="M39 469q2 -289 194 -487q189 -201 471 -230v-43q0 -51 33 -90q31 -39 101 -41h57q33 0 51 -22q16 -25 16 -58q0 -32 -14 -55q-18 -25 -53 -27h-37q-41 2 -51 35t-8 66h-95v-41q0 -66 41 -109q37 -45 91 -47h81q74 2 109 57q33 52 33 119q0 72 -37 123q-37 53 -105 53h-59 q-41 2 -51 15q-10 10 -8 24v41q293 23 483 223q192 199 197 494q-5 305 -209 510q-205 205 -510 209q-305 -4 -508 -209q-209 -205 -213 -510zM479 260v416q2 110 68 186q61 74 153 76h136q92 -2 155 -76q62 -76 64 -186v-90h-156v32q0 74 -18 117q-21 41 -82 41h-64 q-55 0 -76 -41q-22 -43 -22 -117v-301q-2 -59 16 -108q17 -51 82 -53h64q69 2 88 53q14 49 12 108v41h156v-98q0 -90 -50 -172q-24 -39 -65 -61q-43 -27 -104 -27h-136q-57 0 -98 27q-43 22 -70 61q-26 41 -38 86q-15 43 -15 86z" />
<glyph unicode="&#xc8;" horiz-adv-x="1530" d="M39 469q4 -305 213 -506q203 -209 508 -213q305 4 510 213q204 201 209 506q-5 305 -209 510q-205 205 -510 209q-305 -4 -508 -209q-209 -205 -213 -510zM477 0v938h574v-162h-414v-190h260v-158h-260v-272h414v-156h-574zM586 1477q-6 -33 10 -62q16 -27 24 -35 q23 -26 60 -43q18 -10 41 -28q20 -21 45 -54q8 4 39 25q-27 59 -29 104q-2 43 -24 80q-9 10 -23 37q-18 29 -47 37q-33 6 -62 -12q-28 -21 -34 -49z" />
<glyph unicode="&#xc9;" horiz-adv-x="1530" d="M39 469q4 -305 213 -506q203 -209 508 -213q305 4 510 213q204 201 209 506q-5 305 -209 510q-205 205 -510 209q-305 -4 -508 -209q-209 -205 -213 -510zM477 0v938h574v-162h-414v-190h260v-158h-260v-272h414v-156h-574zM664 1284q30 -20 38 -25q29 33 50 54 q20 18 38 28q19 13 35 21q13 8 23 22q8 11 24 35q19 29 13 62q-9 28 -37 49q-64 35 -109 -25q-16 -24 -22 -37q-21 -37 -21 -80q-2 -45 -32 -104z" />
<glyph unicode="&#xca;" horiz-adv-x="1530" d="M39 469q4 -305 213 -506q203 -209 508 -213q305 4 510 213q204 201 209 506q-5 305 -209 510q-205 205 -510 209q-305 -4 -508 -209q-209 -205 -213 -510zM477 0v938h574v-162h-414v-190h260v-158h-260v-272h414v-156h-574zM584 1206l172 168l174 -164v123l-176 180 l-170 -180v-127z" />
<glyph unicode="&#xcb;" horiz-adv-x="1530" d="M39 469q4 -305 213 -506q203 -209 508 -213q305 4 510 213q204 201 209 506q-5 305 -209 510q-205 205 -510 209q-305 -4 -508 -209q-209 -205 -213 -510zM477 0v938h574v-162h-414v-190h260v-158h-260v-272h414v-156h-574zM494 1352q0 -33 24 -56q23 -24 55 -24 q76 2 80 80q0 34 -22 57q-23 22 -58 22q-32 0 -55 -22q-24 -23 -24 -57zM821 1352q0 -33 25 -56q22 -24 55 -24q76 2 80 80q0 34 -23 57q-22 22 -57 22q-33 0 -55 -22q-25 -23 -25 -57z" />
<glyph unicode="&#xcc;" horiz-adv-x="1515" d="M39 469q4 -305 213 -506q203 -209 508 -213q305 4 510 213q204 201 209 506q-5 305 -209 510q-205 205 -510 209q-305 -4 -508 -209q-209 -205 -213 -510zM612 1477q-6 -33 11 -62q16 -27 24 -35q23 -26 60 -43q18 -10 40 -28q21 -21 46 -54q8 4 38 25q-26 59 -28 104 q-2 43 -25 80q-6 10 -22 37q-19 29 -47 37q-33 6 -62 -12q-29 -21 -35 -49zM684 0v936h160v-936h-160z" />
<glyph unicode="&#xcd;" horiz-adv-x="1515" d="M39 469q4 -305 213 -506q203 -209 508 -213q305 4 510 213q204 201 209 506q-5 305 -209 510q-205 205 -510 209q-305 -4 -508 -209q-209 -205 -213 -510zM684 0v936h160v-936h-160zM690 1266q31 -21 39 -25q27 35 51 55q21 19 39 29q19 12 35 20q12 9 20 21q11 12 25 35 q18 28 12 61q-8 29 -37 49q-63 35 -108 -24q-14 -25 -23 -37q-18 -37 -20 -80q-2 -45 -33 -104z" />
<glyph unicode="&#xce;" horiz-adv-x="1515" d="M39 469q4 -305 213 -506q203 -209 508 -213q305 4 510 213q204 201 209 506q-5 305 -209 510q-205 205 -510 209q-305 -4 -508 -209q-209 -205 -213 -510zM588 1221l172 167l174 -163v122l-176 181l-170 -181v-126zM684 0v936h160v-936h-160z" />
<glyph unicode="&#xcf;" horiz-adv-x="1515" d="M39 469q4 -305 213 -506q203 -209 508 -213q305 4 510 213q204 201 209 506q-5 305 -209 510q-205 205 -510 209q-305 -4 -508 -209q-209 -205 -213 -510zM506 1345q0 -32 24 -55q23 -24 56 -24q75 2 80 79q0 35 -23 58q-23 22 -57 22q-33 0 -56 -22q-24 -23 -24 -58z M684 0v936h160v-936h-160zM833 1345q0 -32 25 -55q23 -24 55 -24q76 2 80 79q0 35 -22 58q-23 22 -58 22q-32 0 -55 -22q-25 -23 -25 -58z" />
<glyph unicode="&#xd0;" d="M39 469q4 -305 213 -506q203 -209 508 -213q305 4 510 213q204 201 209 506q-5 305 -209 510q-205 205 -510 209q-305 -4 -508 -209q-209 -205 -213 -510zM342 399v158h156v381h352q92 -2 155 -78q64 -76 66 -186v-418q0 -90 -49 -170q-27 -37 -68 -59q-43 -27 -104 -27 h-352v399h-156zM657 156h144q45 0 82 39q32 34 34 100v377q-2 49 -34 78q-37 26 -82 26h-144v-219h103v-158h-103v-243z" />
<glyph unicode="&#xd1;" horiz-adv-x="1515" d="M39 469q4 -305 213 -506q203 -209 508 -213q305 4 510 213q204 201 209 506q-5 305 -209 510q-205 205 -510 209q-305 -4 -508 -209q-209 -205 -213 -510zM487 1325q90 16 142 20q49 0 133 -20q145 -35 287 0v137q-91 -18 -142 -20q-26 0 -59 6q-35 2 -84 14 q-131 37 -277 0v-137zM500 0v936h157l258 -543v543h158v-936h-2h-156h-2l-256 539v-539h-157z" />
<glyph unicode="&#xd2;" horiz-adv-x="1515" d="M39 469q4 -305 213 -506q203 -209 508 -213q305 4 510 213q204 201 209 506q-5 305 -209 510q-205 205 -510 209q-305 -4 -508 -209q-209 -205 -213 -510zM479 260v416q2 110 68 184q61 74 153 76h136q92 -2 155 -76q62 -74 64 -184v-416q0 -90 -50 -172q-24 -39 -65 -61 q-43 -27 -104 -27h-136q-57 0 -98 27q-43 22 -70 61q-51 82 -53 172zM627 1468q-7 -32 10 -61q16 -25 24 -35q23 -27 60 -43q18 -10 41 -29q20 -20 45 -53q8 4 39 25q-27 59 -29 104q-2 43 -24 80q-9 12 -23 37q-18 29 -47 37q-33 6 -62 -13q-28 -20 -34 -49zM637 317 q-2 -59 16 -108q17 -51 82 -53h64q67 2 86 53q14 49 12 108v301q0 74 -18 117q-21 41 -80 41h-64q-55 0 -76 -41q-22 -43 -22 -117v-301z" />
<glyph unicode="&#xd3;" horiz-adv-x="1515" d="M39 469q4 -305 213 -506q203 -209 508 -213q305 4 510 213q204 201 209 506q-5 305 -209 510q-205 205 -510 209q-305 -4 -508 -209q-209 -205 -213 -510zM479 260v416q2 110 68 184q61 74 153 76h136q92 -2 155 -76q62 -74 64 -184v-416q0 -90 -50 -172q-24 -39 -65 -61 q-43 -27 -104 -27h-136q-57 0 -98 27q-43 22 -70 61q-51 82 -53 172zM637 317q-2 -59 16 -108q17 -51 82 -53h64q67 2 86 53q14 49 12 108v301q0 74 -18 117q-21 41 -80 41h-64q-55 0 -76 -41q-22 -43 -22 -117v-301zM674 1280q30 -21 39 -25q26 35 51 56q20 18 39 28 q18 13 35 21q12 8 20 20q10 13 25 35q34 66 -25 111q-63 34 -108 -25q-15 -22 -23 -37q-18 -37 -20 -80q-3 -45 -33 -104z" />
<glyph unicode="&#xd4;" horiz-adv-x="1515" d="M39 469q4 -305 213 -506q203 -209 508 -213q305 4 510 213q204 201 209 506q-5 305 -209 510q-205 205 -510 209q-305 -4 -508 -209q-209 -205 -213 -510zM479 260v416q2 110 68 184q61 74 153 76h136q92 -2 155 -76q62 -74 64 -184v-416q0 -90 -50 -172q-24 -39 -65 -61 q-43 -27 -104 -27h-136q-57 0 -98 27q-43 22 -70 61q-51 82 -53 172zM602 1206l172 168l174 -164v123l-176 180l-170 -180v-127zM637 317q-2 -59 16 -108q17 -51 82 -53h64q67 2 86 53q14 49 12 108v301q0 74 -18 117q-21 41 -80 41h-64q-55 0 -76 -41q-22 -43 -22 -117 v-301z" />
<glyph unicode="&#xd5;" horiz-adv-x="1515" d="M39 469q4 -305 213 -506q203 -209 508 -213q305 4 510 213q204 201 209 506q-5 305 -209 510q-205 205 -510 209q-305 -4 -508 -209q-209 -205 -213 -510zM479 260v416q2 110 68 184q61 74 153 76h136q92 -2 155 -76q62 -74 64 -184v-416q0 -90 -50 -172q-24 -39 -65 -61 q-43 -27 -104 -27h-136q-57 0 -98 27q-43 22 -70 61q-51 82 -53 172zM479 1272q90 16 141 20q50 0 134 -20q145 -35 286 0v137q-90 -19 -141 -23t-143 23q-131 35 -277 0v-137zM637 317q-2 -59 16 -108q17 -51 82 -53h64q67 2 86 53q14 49 12 108v301q0 74 -18 117 q-21 41 -80 41h-64q-55 0 -76 -41q-22 -43 -22 -117v-301z" />
<glyph unicode="&#xd6;" horiz-adv-x="1515" d="M39 469q4 -305 213 -506q203 -209 508 -213q305 4 510 213q204 201 209 506q-5 305 -209 510q-205 205 -510 209q-305 -4 -508 -209q-209 -205 -213 -510zM479 260v416q2 110 68 184q61 74 153 76h136q92 -2 155 -76q62 -74 64 -184v-416q0 -90 -50 -172q-24 -39 -65 -61 q-43 -27 -104 -27h-136q-57 0 -98 27q-43 22 -70 61q-51 82 -53 172zM520 1366q0 -33 25 -55q22 -25 55 -25q76 2 80 80q0 35 -23 57q-22 23 -57 23q-33 0 -55 -23q-25 -22 -25 -57zM637 317q-2 -59 16 -108q17 -51 82 -53h64q67 2 86 53q14 49 12 108v301q0 74 -18 117 q-21 41 -80 41h-64q-55 0 -76 -41q-22 -43 -22 -117v-301zM848 1366q0 -33 24 -55q23 -25 56 -25q75 2 80 80q0 35 -23 57q-23 23 -57 23q-33 0 -56 -23q-24 -22 -24 -57z" />
<glyph unicode="&#xd7;" horiz-adv-x="987" d="M82 469q2 -182 127 -303q121 -127 303 -129q186 2 307 129q123 121 125 303q-2 182 -125 307q-121 123 -307 125q-182 -2 -303 -125q-125 -125 -127 -307zM199 469q2 135 94 223q86 88 219 90q135 -2 223 -90t90 -223q-2 -133 -90 -219q-88 -92 -223 -94q-133 2 -219 94 q-92 86 -94 219zM254 469l252 -164l256 166h-158v162h-190v-162z" />
<glyph unicode="&#xd8;" d="M39 469q4 -305 213 -506q203 -209 508 -213q305 4 510 213q204 201 209 506q-5 305 -209 510q-205 205 -510 209q-305 -4 -508 -209q-209 -205 -213 -510zM479 260v416q2 92 53 174q52 84 168 86h136q118 -2 169 -86q50 -82 50 -174v-416q-2 -108 -64 -182 q-63 -76 -155 -78h-136q-92 2 -153 78q-66 74 -68 182zM637 317q0 -71 22 -112q21 -45 76 -45h64q59 0 80 45q18 41 18 112v160zM637 483l258 178q2 50 -19 84q-20 33 -77 35h-64q-65 -2 -82 -51q-18 -49 -16 -111v-135z" />
<glyph unicode="&#xd9;" d="M39 469q4 -305 213 -506q203 -209 508 -213q305 4 510 213q204 201 209 506q-5 305 -209 510q-205 205 -510 209q-305 -4 -508 -209q-209 -205 -213 -510zM500 260v676h157v-619q-2 -59 17 -108q16 -51 82 -53h63q68 2 86 53q14 49 12 108v619h158v-676q0 -90 -49 -172 q-25 -39 -66 -61q-43 -27 -104 -27h-135q-57 0 -98 27q-43 22 -70 61q-51 82 -53 172zM614 1456q-6 -33 9 -61q18 -23 24 -35q23 -23 60 -41q36 -21 86 -84q8 4 38 24q-26 60 -28 105q-2 43 -25 80q-6 14 -22 37q-19 30 -47 36q-33 7 -62 -12q-27 -20 -33 -49z" />
<glyph unicode="&#xda;" d="M39 469q4 -305 213 -506q203 -209 508 -213q305 4 510 213q204 201 209 506q-5 305 -209 510q-205 205 -510 209q-305 -4 -508 -209q-209 -205 -213 -510zM500 260v676h157v-619q-2 -59 17 -108q16 -51 82 -53h63q68 2 86 53q14 49 12 108v619h158v-676q0 -90 -49 -172 q-25 -39 -66 -61q-43 -27 -104 -27h-135q-57 0 -98 27q-43 22 -70 61q-51 82 -53 172zM698 1266q31 -21 39 -25q29 35 49 55q21 19 39 29q37 18 58 41q6 12 24 35q33 65 -24 110q-29 19 -58 13q-30 -9 -51 -37q-16 -25 -22 -37q-21 -37 -21 -80q-2 -45 -33 -104z" />
<glyph unicode="&#xdb;" d="M39 469q4 -305 213 -506q203 -209 508 -213q305 4 510 213q204 201 209 506q-5 305 -209 510q-205 205 -510 209q-305 -4 -508 -209q-209 -205 -213 -510zM500 260v676h157v-619q-2 -59 17 -108q16 -51 82 -53h63q68 2 86 53q14 49 12 108v619h158v-676q0 -90 -49 -172 q-25 -39 -66 -61q-43 -27 -104 -27h-135q-57 0 -98 27q-43 22 -70 61q-51 82 -53 172zM577 1221l173 167l174 -163v122l-177 181l-170 -181v-126z" />
<glyph unicode="&#xdc;" d="M39 469q4 -305 213 -506q203 -209 508 -213q305 4 510 213q204 201 209 506q-5 305 -209 510q-205 205 -510 209q-305 -4 -508 -209q-209 -205 -213 -510zM500 260v676h157v-619q-2 -59 17 -108q16 -51 82 -53h63q68 2 86 53q14 49 12 108v619h158v-676q0 -90 -49 -172 q-25 -39 -66 -61q-43 -27 -104 -27h-135q-57 0 -98 27q-43 22 -70 61q-51 82 -53 172zM520 1325q0 -33 25 -55q22 -25 55 -25q76 2 80 80q0 35 -23 57q-22 23 -57 23q-33 0 -55 -23q-25 -22 -25 -57zM848 1325q0 -33 24 -55q23 -25 56 -25q75 2 80 80q0 35 -23 57 q-23 23 -57 23q-33 0 -56 -23q-24 -22 -24 -57z" />
<glyph unicode="&#xdd;" horiz-adv-x="1515" d="M39 469q4 -305 213 -506q203 -209 508 -213q305 4 510 213q204 201 209 506q-5 305 -209 510q-205 205 -510 209q-305 -4 -508 -209q-209 -205 -213 -510zM446 936h179l145 -494l147 494h179l-236 -670v-266h-178v266zM698 1259q31 -20 39 -24q29 33 49 53q21 19 39 29 q19 12 35 20q12 8 23 23q6 10 24 35q33 65 -24 110q-29 19 -58 12q-30 -8 -51 -36q-16 -25 -22 -37q-21 -37 -21 -80q-2 -45 -33 -105z" />
<glyph unicode="&#xdf;" horiz-adv-x="731" d="M47 428h43v-625h158v783v78q0 45 26 79q25 33 68 33h51q45 0 76 -29q29 -28 31 -73q-2 -41 -31 -64q-31 -24 -76 -24h-86v-158h86q45 -2 76 -41q29 -39 31 -86q-2 -45 -31 -92q-31 -51 -76 -53h-80v-156h135q62 0 105 27q41 22 67 61q29 37 44 84q12 43 12 86 q4 68 -19 133q-24 64 -57 107q64 69 66 178q-2 110 -64 184q-61 74 -154 76h-180q-59 -2 -114 -53q-27 -25 -43 -58q-21 -32 -21 -69v-170h-43v-158z" />
<glyph unicode="&#xe0;" horiz-adv-x="737" d="M66 0h157l35 156h223l35 -156h158l-219 936h-158zM195 1214q-7 -32 10 -61q16 -25 24 -35q23 -26 60 -43q18 -10 41 -29q20 -20 45 -53q8 4 39 25q-27 59 -29 104q-2 43 -25 80q-6 12 -22 37q-19 29 -47 37q-33 6 -62 -12q-28 -21 -34 -50zM293 319l76 295l77 -295h-153z " />
<glyph unicode="&#xe1;" horiz-adv-x="737" d="M66 0h157l35 156h223l35 -156h158l-219 936h-158zM293 319l76 295l77 -295h-153zM295 1059q31 -21 39 -25q28 33 49 53q20 19 39 29q18 12 35 21q12 8 22 22q8 10 25 35q18 29 12 61q-8 29 -37 49q-63 35 -108 -24q-17 -25 -23 -37q-20 -37 -20 -80q-2 -45 -33 -104z" />
<glyph unicode="&#xe2;" horiz-adv-x="737" d="M66 0h157l35 156h223l35 -156h158l-219 936h-158zM207 1018l172 168l174 -164v123l-176 180l-170 -180v-127zM293 319l76 295l77 -295h-153z" />
<glyph unicode="&#xe3;" horiz-adv-x="737" d="M66 0h157l35 156h223l35 -156h158l-219 936h-158zM98 1012q90 16 142 20q49 0 133 -20q145 -35 286 0v137q-90 -19 -141 -21q-27 0 -59 7q-35 2 -84 14q-131 37 -277 0v-137zM293 319l76 295l77 -295h-153z" />
<glyph unicode="&#xe4;" horiz-adv-x="737" d="M66 0h157l35 156h223l35 -156h158l-219 936h-158zM131 1079q0 -33 25 -55q22 -25 55 -25q76 2 80 80q0 35 -23 58q-22 22 -57 22q-33 0 -55 -22q-25 -23 -25 -58zM293 319l76 295l77 -295h-153zM459 1079q0 -33 24 -55q23 -25 56 -25q75 2 79 80q0 35 -22 58 q-23 22 -57 22q-33 0 -56 -22q-24 -23 -24 -58z" />
<glyph unicode="&#xe5;" horiz-adv-x="737" d="M66 0h157l35 156h223l35 -156h158l-219 936h-158zM190 1196q0 -76 54 -127q51 -53 125 -53q77 0 129 53q51 51 51 127t-51 127q-52 51 -129 51q-74 0 -125 -51q-54 -51 -54 -127zM293 319l76 295l77 -295h-153zM295 1196q2 70 74 74q69 -4 73 -74q-4 -72 -73 -74 q-72 2 -74 74z" />
<glyph unicode="&#xe6;" horiz-adv-x="1067" d="M63 0h185l69 156h191v-156h2h508v156h-352v272h198v158h-198v190h352v160h-512zM397 319l111 215v-215h-111z" />
<glyph unicode="&#xe7;" horiz-adv-x="727" d="M90 260q0 -90 53 -172q27 -39 70 -61q41 -27 98 -27h13v-23q0 -51 32 -90q31 -39 101 -41h57q33 0 51 -22q17 -25 17 -57q0 -33 -15 -56q-18 -24 -53 -26h-37q-41 2 -51 34q-10 33 -8 66h-94v-41q0 -65 41 -109q36 -45 90 -47h82q73 2 108 58q33 51 33 119q0 71 -37 122 q-37 54 -104 54h-60q-41 2 -51 14q-10 10 -8 25v20h28q62 0 105 27q41 22 65 61q50 82 50 172v98h-156v-41q2 -59 -12 -108q-19 -51 -88 -53h-64q-65 2 -82 53q-18 49 -16 108v301q0 74 22 117q21 41 76 41h64q61 0 81 -41q19 -43 19 -117v-32h156v90q-2 110 -64 186 q-63 74 -156 76h-135q-92 -2 -153 -76q-66 -76 -68 -186v-416z" />
<glyph unicode="&#xe8;" horiz-adv-x="737" d="M88 0h573v156h-413v272h260v158h-260v190h413v162h-573v-938zM195 1214q-7 -32 10 -61q16 -25 24 -35q23 -26 60 -43q18 -10 41 -29q20 -20 45 -53q8 4 39 25q-27 59 -29 104q-2 43 -25 80q-6 12 -22 37q-19 29 -47 37q-33 6 -62 -12q-28 -21 -34 -50z" />
<glyph unicode="&#xe9;" horiz-adv-x="737" d="M88 0h573v156h-413v272h260v158h-260v190h413v162h-573v-938zM295 1018q31 -21 39 -25q28 33 49 53q20 19 39 29q18 12 35 21q12 8 22 22q8 10 25 35q18 29 12 61q-8 29 -37 50q-63 34 -108 -25q-17 -25 -23 -37q-20 -37 -20 -80q-2 -45 -33 -104z" />
<glyph unicode="&#xea;" horiz-adv-x="737" d="M88 0h573v156h-413v272h260v158h-260v190h413v162h-573v-938zM207 1018l172 168l174 -164v123l-176 180l-170 -180v-127z" />
<glyph unicode="&#xeb;" horiz-adv-x="737" d="M88 0h573v156h-413v272h260v158h-260v190h413v162h-573v-938zM131 1079q0 -33 25 -55q22 -25 55 -25q76 2 80 80q0 35 -23 58q-22 22 -57 22q-33 0 -55 -22q-25 -23 -25 -58zM459 1079q0 -33 24 -55q23 -25 56 -25q75 2 79 80q0 35 -22 58q-23 22 -57 22q-33 0 -56 -22 q-24 -23 -24 -58z" />
<glyph unicode="&#xec;" horiz-adv-x="330" d="M0 1231q-6 -33 10 -62q17 -24 25 -34q22 -27 59 -43q19 -11 41 -29q21 -21 45 -53q8 4 39 24q-27 60 -29 105q-2 43 -24 79q-8 13 -23 37q-18 29 -47 37q-33 6 -61 -12q-29 -21 -35 -49zM90 0h160v936h-160v-936z" />
<glyph unicode="&#xed;" horiz-adv-x="330" d="M90 0h160v936h-160v-936zM90 1018q31 -21 39 -25q29 33 49 53q21 19 39 29q19 12 35 21q12 8 22 22q9 10 25 35q18 29 12 61q-8 29 -37 50q-63 34 -108 -25q-17 -25 -23 -37q-20 -37 -20 -80q-2 -45 -33 -104z" />
<glyph unicode="&#xee;" horiz-adv-x="330" d="M0 1034l174 152l174 -164v123l-176 180l-170 -180zM90 0h160v936h-160v-936z" />
<glyph unicode="&#xef;" horiz-adv-x="330" d="M-74 1079q2 -33 25 -55q22 -25 55 -25q76 2 80 80q0 35 -23 58q-22 22 -57 22q-33 0 -55 -22q-23 -23 -25 -58zM90 0h160v936h-160v-936zM254 1079q0 -33 25 -55q22 -25 55 -25q76 2 80 80q0 35 -23 58q-22 22 -57 22q-33 0 -55 -22q-25 -23 -25 -58z" />
<glyph unicode="&#xf0;" horiz-adv-x="846" d="M90 315q0 -135 84 -223q78 -92 217 -94q139 2 209 94q68 90 68 223v275h108v157h-135q-29 76 -88 134q-62 55 -148 57h-65v-162h57q72 -6 94 -69q17 -66 17 -103q-51 27 -117 27q-137 -2 -217 -88q-84 -88 -84 -228zM244 311q0 66 43 105q39 39 100 39q66 0 102 -39 q39 -39 39 -105q0 -63 -37 -104q-38 -43 -104 -43q-65 0 -102 43q-41 41 -41 104z" />
<glyph unicode="&#xf1;" horiz-adv-x="733" d="M90 0h158v539l256 -539h2h155h3v936h-158v-543l-258 543h-158v-936zM98 1012q90 16 142 20q49 0 133 -20q145 -35 286 0v137q-90 -19 -141 -21q-27 0 -59 7q-35 2 -84 14q-131 37 -277 0v-137z" />
<glyph unicode="&#xf2;" horiz-adv-x="741" d="M90 260q2 -90 53 -172q27 -39 70 -61q41 -27 98 -27h135q62 0 105 27q41 22 65 61q50 82 50 172v416q-2 110 -64 184q-63 74 -156 76h-135q-92 -2 -153 -76q-66 -74 -68 -184v-416zM195 1214q-7 -32 10 -61q16 -25 24 -35q23 -26 60 -43q18 -10 41 -29q20 -20 45 -53 q8 4 39 25q-27 59 -29 104q-2 43 -25 80q-6 12 -22 37q-19 29 -47 37q-33 6 -62 -12q-28 -21 -34 -50zM248 317v301q0 74 22 117q21 41 76 41h64q59 0 79 -41q19 -43 19 -117v-301q2 -59 -12 -108q-19 -51 -86 -53h-64q-65 2 -82 53q-18 49 -16 108z" />
<glyph unicode="&#xf3;" horiz-adv-x="741" d="M90 260q2 -90 53 -172q27 -39 70 -61q41 -27 98 -27h135q62 0 105 27q41 22 65 61q50 82 50 172v416q-2 110 -64 184q-63 74 -156 76h-135q-92 -2 -153 -76q-66 -74 -68 -184v-416zM248 317v301q0 74 22 117q21 41 76 41h64q59 0 79 -41q19 -43 19 -117v-301 q2 -59 -12 -108q-19 -51 -86 -53h-64q-65 2 -82 53q-18 49 -16 108zM295 1018q31 -21 39 -25q28 33 49 53q20 19 39 29q18 12 35 21q12 8 22 22q8 10 25 35q18 29 12 61q-8 29 -37 50q-63 34 -108 -25q-17 -25 -23 -37q-20 -37 -20 -80q-2 -45 -33 -104z" />
<glyph unicode="&#xf4;" horiz-adv-x="741" d="M90 260q2 -90 53 -172q27 -39 70 -61q41 -27 98 -27h135q62 0 105 27q41 22 65 61q50 82 50 172v416q-2 110 -64 184q-63 74 -156 76h-135q-92 -2 -153 -76q-66 -74 -68 -184v-416zM207 1018l172 168l174 -164v123l-176 180l-170 -180v-127zM248 317v301q0 74 22 117 q21 41 76 41h64q59 0 79 -41q19 -43 19 -117v-301q2 -59 -12 -108q-19 -51 -86 -53h-64q-65 2 -82 53q-18 49 -16 108z" />
<glyph unicode="&#xf5;" horiz-adv-x="741" d="M90 260q2 -90 53 -172q27 -39 70 -61q41 -27 98 -27h135q62 0 105 27q41 22 65 61q50 82 50 172v416q-2 110 -64 184q-63 74 -156 76h-135q-92 -2 -153 -76q-66 -74 -68 -184v-416zM98 1012q90 16 142 20q49 0 133 -20q145 -35 286 0v137q-90 -19 -141 -21q-27 0 -59 7 q-35 2 -84 14q-131 37 -277 0v-137zM248 317v301q0 74 22 117q21 41 76 41h64q59 0 79 -41q19 -43 19 -117v-301q2 -59 -12 -108q-19 -51 -86 -53h-64q-65 2 -82 53q-18 49 -16 108z" />
<glyph unicode="&#xf6;" horiz-adv-x="741" d="M90 260q2 -90 53 -172q27 -39 70 -61q41 -27 98 -27h135q62 0 105 27q41 22 65 61q50 82 50 172v416q-2 110 -64 184q-63 74 -156 76h-135q-92 -2 -153 -76q-66 -74 -68 -184v-416zM131 1079q0 -33 25 -55q22 -25 55 -25q76 2 80 80q0 35 -23 58q-22 22 -57 22 q-33 0 -55 -22q-25 -23 -25 -58zM248 317v301q0 74 22 117q21 41 76 41h64q59 0 79 -41q19 -43 19 -117v-301q2 -59 -12 -108q-19 -51 -86 -53h-64q-65 2 -82 53q-18 49 -16 108zM459 1079q0 -33 24 -55q23 -25 56 -25q75 2 79 80q0 35 -22 58q-23 22 -57 22q-33 0 -56 -22 q-24 -23 -24 -58z" />
<glyph unicode="&#xf7;" horiz-adv-x="596" d="M90 428h418v158h-418v-158zM221 276q0 -32 25 -55q22 -24 55 -24q76 2 80 79q0 35 -23 58q-22 22 -57 22q-33 0 -55 -22q-25 -23 -25 -58zM221 747q0 -32 25 -55q22 -24 55 -24q76 2 80 79q0 35 -23 58q-22 22 -57 22q-33 0 -55 -22q-25 -23 -25 -58z" />
<glyph unicode="&#xf8;" horiz-adv-x="741" d="M90 260q2 -108 68 -182q61 -76 153 -78h135q93 2 156 78q62 74 64 182v416q0 92 -50 174q-51 84 -170 86h-135q-116 -2 -168 -86q-51 -82 -53 -174v-416zM248 317l260 160v-160q0 -71 -19 -112q-20 -45 -79 -45h-64q-55 0 -76 45q-22 41 -22 112zM248 483v135 q-2 62 16 111q17 49 82 51h64q57 -2 77 -35q21 -34 19 -84z" />
<glyph unicode="&#xf9;" horiz-adv-x="741" d="M90 260q2 -90 53 -172q27 -39 70 -61q41 -27 98 -27h135q62 0 105 27q41 22 65 61q50 82 50 172v676h-158v-619q2 -59 -12 -108q-19 -51 -86 -53h-64q-65 2 -82 53q-18 49 -16 108v619h-158v-676zM195 1214q-7 -32 10 -61q16 -25 24 -35q23 -26 60 -43q18 -10 41 -29 q20 -20 45 -53q8 4 39 25q-27 59 -29 104q-2 43 -25 80q-6 12 -22 37q-19 29 -47 37q-33 6 -62 -12q-28 -21 -34 -50z" />
<glyph unicode="&#xfa;" horiz-adv-x="741" d="M90 260q2 -90 53 -172q27 -39 70 -61q41 -27 98 -27h135q62 0 105 27q41 22 65 61q50 82 50 172v676h-158v-619q2 -59 -12 -108q-19 -51 -86 -53h-64q-65 2 -82 53q-18 49 -16 108v619h-158v-676zM336 1018q31 -21 39 -25q28 33 49 53q20 19 39 29q18 12 35 21 q12 8 22 22q8 10 25 35q18 29 12 61q-8 29 -37 50q-63 34 -108 -25q-17 -25 -23 -37q-20 -37 -20 -80q-2 -45 -33 -104z" />
<glyph unicode="&#xfb;" horiz-adv-x="741" d="M90 260q2 -90 53 -172q27 -39 70 -61q41 -27 98 -27h135q62 0 105 27q41 22 65 61q50 82 50 172v676h-158v-619q2 -59 -12 -108q-19 -51 -86 -53h-64q-65 2 -82 53q-18 49 -16 108v619h-158v-676zM207 1018l172 168l174 -164v123l-176 180l-170 -180v-127z" />
<glyph unicode="&#xfc;" horiz-adv-x="741" d="M90 260q2 -90 53 -172q27 -39 70 -61q41 -27 98 -27h135q62 0 105 27q41 22 65 61q50 82 50 172v676h-158v-619q2 -59 -12 -108q-19 -51 -86 -53h-64q-65 2 -82 53q-18 49 -16 108v619h-158v-676zM131 1079q0 -33 25 -55q22 -25 55 -25q76 2 80 80q0 35 -23 58 q-22 22 -57 22q-33 0 -55 -22q-25 -23 -25 -58zM459 1079q0 -33 24 -55q23 -25 56 -25q75 2 79 80q0 35 -22 58q-23 22 -57 22q-33 0 -56 -22q-24 -23 -24 -58z" />
<glyph unicode="&#xfd;" horiz-adv-x="758" d="M57 936l236 -670v-266h178v266l236 670h-179l-147 -494l-145 494h-179zM301 1063q31 -21 39 -25q29 33 49 54q21 18 39 28q18 12 35 21q12 8 22 22q6 12 25 35q33 66 -25 111q-28 18 -57 12q-31 -8 -51 -37q-17 -25 -23 -37q-20 -37 -20 -80q-2 -45 -33 -104z" />
<glyph unicode="&#xff;" horiz-adv-x="758" d="M57 936l236 -670v-266h178v266l236 670h-179l-147 -494l-145 494h-179zM131 1079q0 -33 25 -55q22 -25 55 -25q76 2 80 80q0 35 -23 58q-22 22 -57 22q-33 0 -55 -22q-25 -23 -25 -58zM459 1079q0 -33 24 -55q23 -25 56 -25q75 2 79 80q0 35 -22 58q-23 22 -57 22 q-33 0 -56 -22q-24 -23 -24 -58z" />
<glyph unicode="&#x152;" d="M39 469q4 -305 213 -506q203 -209 508 -213q305 4 510 213q204 201 209 506q-5 305 -209 510q-205 205 -510 209q-305 -4 -508 -209q-209 -205 -213 -510zM295 260v416q2 110 67 184q62 74 154 76h684v-160h-330v-190h176v-158h-176v-272h330v-156h-684q-57 0 -98 27 q-43 22 -70 61q-51 82 -53 172zM453 317q-2 -59 16 -108q16 -51 82 -53h63q88 4 95 90v440q-7 88 -95 90h-63q-55 0 -76 -41q-22 -43 -22 -117v-301z" />
<glyph unicode="&#x153;" horiz-adv-x="1040" d="M90 260q2 -90 53 -172q27 -39 70 -61q41 -27 98 -27h684v156h-329v272h176v158h-176v190h329v160h-684q-92 -2 -153 -76q-66 -74 -68 -184v-416zM248 317v301q0 74 22 117q21 41 76 41h64q88 -2 94 -90v-440q-6 -86 -94 -90h-64q-65 2 -82 53q-18 49 -16 108z" />
<glyph unicode="&#x178;" horiz-adv-x="1515" d="M39 469q4 -305 213 -506q203 -209 508 -213q305 4 510 213q204 201 209 506q-5 305 -209 510q-205 205 -510 209q-305 -4 -508 -209q-209 -205 -213 -510zM446 936h179l145 -494l147 494h179l-236 -670v-266h-178v266zM500 1319q0 -33 24 -55q23 -25 56 -25q75 2 79 80 q0 35 -22 57q-23 23 -57 23q-33 0 -56 -23q-24 -22 -24 -57zM827 1319q0 -33 25 -55q22 -25 55 -25q76 2 80 80q0 35 -22 57q-23 23 -58 23q-33 0 -55 -23q-25 -22 -25 -57z" />
<glyph unicode="&#x2c6;" horiz-adv-x="735" d="M207 1018l172 168l174 -164v123l-176 180l-170 -180v-127z" />
<glyph unicode="&#x2dc;" horiz-adv-x="758" d="M162 1012q49 8 71 14q25 6 39 6q25 0 103 -20q78 -17 114 -17q37 0 111 17v137q-74 -25 -102 -25q-19 0 -45 6q-27 7 -76 19q-66 20 -103 20q-36 -2 -112 -20v-137z" />
<glyph unicode="&#x2000;" horiz-adv-x="789" />
<glyph unicode="&#x2001;" horiz-adv-x="1579" />
<glyph unicode="&#x2002;" horiz-adv-x="789" />
<glyph unicode="&#x2003;" horiz-adv-x="1579" />
<glyph unicode="&#x2004;" horiz-adv-x="526" />
<glyph unicode="&#x2005;" horiz-adv-x="394" />
<glyph unicode="&#x2006;" horiz-adv-x="263" />
<glyph unicode="&#x2007;" horiz-adv-x="263" />
<glyph unicode="&#x2008;" horiz-adv-x="197" />
<glyph unicode="&#x2009;" horiz-adv-x="315" />
<glyph unicode="&#x200a;" horiz-adv-x="87" />
<glyph unicode="&#x2010;" horiz-adv-x="596" d="M90 428h418v158h-418v-158z" />
<glyph unicode="&#x2011;" horiz-adv-x="596" d="M90 428h418v158h-418v-158z" />
<glyph unicode="&#x2012;" horiz-adv-x="596" d="M90 428h418v158h-418v-158z" />
<glyph unicode="&#x2013;" horiz-adv-x="424" d="M90 428h254v158h-254v-158z" />
<glyph unicode="&#x2014;" horiz-adv-x="778" d="M90 428h623v158h-623v-158z" />
<glyph unicode="&#x2018;" horiz-adv-x="326" d="M90 741q2 -77 78 -80q76 3 80 80q0 35 -23 58q-22 22 -57 22h-2q0 68 82 119h-33q-23 -6 -72 -57q-20 -23 -37 -47q-16 -27 -16 -52v-43z" />
<glyph unicode="&#x2019;" horiz-adv-x="326" d="M90 661h33q26 11 74 60q22 24 36 49q15 25 15 47v43q0 35 -21 57q-22 23 -57 23q-33 0 -55 -23q-25 -22 -25 -57q0 -33 25 -55q22 -25 55 -25h2q0 -67 -82 -119z" />
<glyph unicode="&#x201a;" horiz-adv-x="330" d="M90 76q0 -33 25 -56q22 -22 55 -24h2q0 -68 -82 -119h33q26 10 74 60q22 24 36 49q15 24 15 47v43q0 35 -21 57q-22 23 -57 23q-33 0 -55 -23q-25 -22 -25 -57z" />
<glyph unicode="&#x201c;" horiz-adv-x="541" d="M90 741q2 -77 78 -80q76 3 80 80q0 35 -23 58q-22 22 -57 22h-2q0 68 82 119h-33q-23 -6 -72 -57q-20 -23 -37 -47q-16 -27 -16 -52v-43zM315 741q2 -77 78 -80q76 3 80 80q0 35 -22 58q-23 22 -58 22h-2q0 68 82 119h-33q-22 -6 -71 -57q-21 -23 -37 -47 q-17 -27 -17 -52v-43z" />
<glyph unicode="&#x201d;" horiz-adv-x="541" d="M90 661h33q26 11 74 60q22 24 36 49q15 25 15 47v43q0 35 -21 57q-22 23 -57 23q-33 0 -55 -23q-25 -22 -25 -57q0 -33 25 -55q22 -25 55 -25h2q0 -67 -82 -119zM315 661h33q27 11 74 60q22 24 37 49q14 25 14 47v43q0 35 -20 57q-23 23 -58 23q-33 0 -55 -23 q-25 -22 -25 -57q0 -33 25 -55q22 -25 55 -25h2q0 -67 -82 -119z" />
<glyph unicode="&#x201e;" horiz-adv-x="541" d="M90 76q0 -33 25 -56q22 -22 55 -24h2q0 -68 -82 -119h33q26 10 74 60q22 24 36 49q15 24 15 47v43q0 35 -21 57q-22 23 -57 23q-33 0 -55 -23q-25 -22 -25 -57zM315 76q0 -33 25 -56q22 -22 55 -24h2q0 -68 -82 -119h33q27 10 74 60q22 24 37 49q14 24 14 47v43 q0 35 -20 57q-23 23 -58 23q-33 0 -55 -23q-25 -22 -25 -57z" />
<glyph unicode="&#x2022;" horiz-adv-x="786" d="M98 469q2 133 92 223q91 88 222 90q133 -2 223 -90q88 -90 90 -223q-2 -131 -90 -221q-90 -90 -223 -92q-131 2 -222 92q-90 90 -92 221z" />
<glyph unicode="&#x2026;" horiz-adv-x="954" d="M90 76q0 -33 25 -56q22 -22 55 -24q76 4 80 80q0 35 -23 57q-22 23 -57 23q-33 0 -55 -23q-25 -22 -25 -57zM397 76q0 -33 25 -56q22 -22 55 -24q76 4 80 80q0 35 -23 57q-22 23 -57 23q-33 0 -55 -23q-25 -22 -25 -57zM725 76q0 -33 25 -56q22 -22 55 -24q76 4 80 80 q0 35 -23 57q-22 23 -57 23q-33 0 -55 -23q-25 -22 -25 -57z" />
<glyph unicode="&#x202f;" horiz-adv-x="315" />
<glyph unicode="&#x2039;" horiz-adv-x="987" d="M82 469q2 -182 127 -303q123 -127 305 -129q184 2 305 129q123 121 125 303q-2 182 -125 307q-121 123 -305 125q-182 -2 -305 -125q-125 -125 -127 -307zM201 469q2 133 92 223q90 88 221 90q133 -2 223 -90q88 -90 90 -223q-2 -131 -90 -221q-90 -90 -223 -92 q-131 2 -221 92t-92 221zM354 471l166 -256v158h162v190h-162l-2 160z" />
<glyph unicode="&#x203a;" horiz-adv-x="987" d="M82 469q2 -182 127 -303q123 -127 305 -129q184 2 305 129q123 121 125 303q-2 182 -125 307q-121 123 -305 125q-182 -2 -305 -125q-125 -125 -127 -307zM201 469q2 133 92 223q90 88 221 90q133 -2 223 -90q88 -90 90 -223q-2 -131 -90 -221q-90 -90 -223 -92 q-131 2 -221 92t-92 221zM375 373h162v-158l165 256l-163 252v-160h-164v-190z" />
<glyph unicode="&#x205f;" horiz-adv-x="394" />
<glyph unicode="&#x2122;" horiz-adv-x="1319" d="M90 776h148v-469h157v469h148v158h-453v-158zM623 307h157v420l105 -420h116l99 420v-422h157v631h-239l-76 -293l-94 293h-225v-629z" />
<glyph unicode="&#x25fc;" horiz-adv-x="935" d="M0 0v935h935v-935h-935z" />
<glyph unicode="&#xfb01;" horiz-adv-x="1067" d="M88 0h135q27 0 25 0v428h260v158h-260v190h416v160h-576v-936zM827 0h160v936h-160v-936z" />
<glyph unicode="&#xfb02;" horiz-adv-x="1474" d="M88 0h135q27 0 25 0v428h260v158h-260v190h416v160h-576v-936zM827 0h571v158h-413v776q2 0 -23 0h-135v-934z" />
<glyph unicode="&#xfb03;" horiz-adv-x="1804" d="M88 0h135q27 0 25 0v428h260v158h-260v190h416v160h-576v-936zM825 0h135q27 0 25 0v428h260v158h-260v190h416v160h-576v-936zM1564 0h160v936h-160v-936z" />
<glyph unicode="&#xfb04;" horiz-adv-x="2211" d="M88 0h135q27 0 25 0v428h260v158h-260v190h416v160h-576v-936zM825 0h135q27 0 25 0v428h260v158h-260v190h416v160h-576v-936zM1564 0h571v158h-413v776q2 0 -23 0h-135v-934z" />
</font>
</defs>
</svg>
